<?xml version="1.0" standalone="no"?>
<!DOCTYPE svg PUBLIC "-//W3C//DTD SVG 20010904//EN"
 "http://www.w3.org/TR/2001/REC-SVG-20010904/DTD/svg10.dtd">
<svg version="1.0" xmlns="http://www.w3.org/2000/svg"
 width="2048.000000pt" height="2048.000000pt" viewBox="0 0 2048.000000 2048.000000"
 preserveAspectRatio="xMidYMid meet">
<metadata>
Created by potrace 1.14, written by Peter Selinger 2001-2017
</metadata>
<g transform="translate(0.000000,2048.000000) scale(0.100000,-0.100000)"
fill="#000000" stroke="none">
<path d="M0 10240 l0 -10240 10240 0 10240 0 0 10240 0 10240 -10240 0 -10240
0 0 -10240z m6550 5962 c439 -48 671 -90 985 -179 471 -133 882 -337 1245
-619 137 -106 396 -361 501 -494 424 -534 665 -1171 741 -1955 18 -193 15
-694 -6 -885 -82 -757 -320 -1372 -726 -1880 -110 -137 -337 -363 -474 -472
-291 -232 -643 -426 -1021 -563 -71 -25 -131 -48 -133 -49 -1 -2 136 -255 306
-562 170 -308 702 -1270 1182 -2139 480 -869 969 -1753 1086 -1965 l213 -385
-1212 -3 c-961 -2 -1214 1 -1222 10 -7 7 -282 540 -613 1183 -330 644 -711
1386 -847 1650 -136 264 -309 602 -386 750 -76 149 -246 479 -377 735 l-240
465 -1396 3 -1396 2 -2 -2397 -3 -2398 -1037 -3 -1038 -2 0 6085 0 6086 2883
-4 c2057 -3 2912 -7 2987 -15z m7740 -5107 l0 -5125 2820 0 2820 0 -2 -957 -3
-958 -3852 -3 -3853 -2 0 6085 0 6085 1035 0 1035 0 0 -5125z"/>
<path d="M2760 12535 l0 -1765 1708 0 c1922 0 1933 1 2233 76 325 81 567 213
780 424 247 246 384 535 445 940 22 141 24 480 5 620 -56 415 -198 719 -450
971 -267 266 -576 405 -1066 480 -60 10 -516 14 -1867 16 l-1788 4 0 -1766z"/>
</g>
</svg>
